<svg width="131" height="13" viewBox="0 0 131 13" fill="none" xmlns="http://www.w3.org/2000/svg">
<path d="M8.696 8.208C8.776 8.20267 8.848 8.232 8.912 8.296L9.392 8.808C9.088 9.16 8.71467 9.43467 8.272 9.632C7.83467 9.824 7.30667 9.92 6.688 9.92C6.16533 9.92 5.688 9.82933 5.256 9.648C4.82933 9.46667 4.46133 9.21333 4.152 8.888C3.848 8.56267 3.61067 8.176 3.44 7.728C3.27467 7.28 3.192 6.78933 3.192 6.256C3.192 5.71733 3.28267 5.224 3.464 4.776C3.64533 4.32267 3.89867 3.936 4.224 3.616C4.54933 3.29067 4.93333 3.04 5.376 2.864C5.824 2.68267 6.30933 2.592 6.832 2.592C7.41333 2.592 7.904 2.68267 8.304 2.864C8.70933 3.04 9.064 3.27733 9.368 3.576L9 4.096C8.97333 4.128 8.93867 4.16 8.896 4.192C8.85333 4.224 8.80267 4.24 8.744 4.24C8.66933 4.24 8.58933 4.21067 8.504 4.152C8.424 4.09333 8.31733 4.02933 8.184 3.96C8.05067 3.88533 7.88 3.81867 7.672 3.76C7.46933 3.696 7.21333 3.664 6.904 3.664C6.52533 3.664 6.18667 3.72533 5.888 3.848C5.58933 3.96533 5.33333 4.136 5.12 4.36C4.90667 4.584 4.744 4.856 4.632 5.176C4.52 5.496 4.464 5.856 4.464 6.256C4.464 6.66667 4.52 7.03467 4.632 7.36C4.74933 7.68 4.90933 7.94933 5.112 8.168C5.31467 8.38667 5.55467 8.55467 5.832 8.672C6.11467 8.784 6.42133 8.84 6.752 8.84C7.02933 8.84 7.26133 8.81867 7.448 8.776C7.63467 8.73333 7.79733 8.68267 7.936 8.624C8.08 8.56 8.208 8.49067 8.32 8.416C8.43733 8.34133 8.56267 8.272 8.696 8.208ZM0.808 6.272C0.808 5.73333 0.877333 5.216 1.016 4.72C1.15467 4.21867 1.352 3.752 1.608 3.32C1.864 2.88267 2.168 2.488 2.52 2.136C2.87733 1.77867 3.272 1.472 3.704 1.216C4.136 0.96 4.6 0.762666 5.096 0.624C5.592 0.485333 6.10933 0.415999 6.648 0.415999C7.18667 0.415999 7.704 0.485333 8.2 0.624C8.70133 0.762666 9.168 0.96 9.6 1.216C10.032 1.472 10.4267 1.77867 10.784 2.136C11.1413 2.488 11.4453 2.88267 11.696 3.32C11.952 3.752 12.1493 4.21867 12.288 4.72C12.4267 5.216 12.496 5.73333 12.496 6.272C12.496 6.80533 12.4267 7.32267 12.288 7.824C12.1493 8.32 11.952 8.784 11.696 9.216C11.4453 9.648 11.1413 10.0427 10.784 10.4C10.4267 10.752 10.032 11.056 9.6 11.312C9.168 11.568 8.70133 11.7653 8.2 11.904C7.704 12.0427 7.18667 12.112 6.648 12.112C6.10933 12.112 5.592 12.0427 5.096 11.904C4.6 11.7653 4.136 11.568 3.704 11.312C3.272 11.056 2.87733 10.752 2.52 10.4C2.168 10.0427 1.864 9.648 1.608 9.216C1.352 8.784 1.15467 8.32 1.016 7.824C0.877333 7.328 0.808 6.81067 0.808 6.272ZM1.616 6.272C1.616 6.74667 1.67467 7.20267 1.792 7.64C1.90933 8.07733 2.07467 8.488 2.288 8.872C2.50667 9.25067 2.768 9.59467 3.072 9.904C3.38133 10.2133 3.72 10.48 4.088 10.704C4.46133 10.9227 4.864 11.0933 5.296 11.216C5.728 11.3333 6.17867 11.392 6.648 11.392C7.11733 11.392 7.568 11.3333 8 11.216C8.43733 11.0933 8.84267 10.9227 9.216 10.704C9.59467 10.48 9.936 10.2133 10.24 9.904C10.5493 9.59467 10.8133 9.25067 11.032 8.872C11.2507 8.488 11.4187 8.07733 11.536 7.64C11.6587 7.20267 11.72 6.74667 11.72 6.272C11.72 5.55733 11.5867 4.888 11.32 4.264C11.0587 3.63467 10.6987 3.088 10.24 2.624C9.78667 2.15467 9.25067 1.78667 8.632 1.52C8.01333 1.248 7.352 1.112 6.648 1.112C6.17867 1.112 5.728 1.17333 5.296 1.296C4.864 1.41867 4.46133 1.592 4.088 1.816C3.72 2.03467 3.38133 2.30133 3.072 2.616C2.768 2.93067 2.50667 3.28 2.288 3.664C2.07467 4.04267 1.90933 4.45333 1.792 4.896C1.67467 5.33867 1.616 5.79733 1.616 6.272ZM28.1666 6.488V10.888C27.5906 11.304 26.9746 11.616 26.3186 11.824C25.668 12.0267 24.9533 12.128 24.1746 12.128C23.252 12.128 22.42 11.9867 21.6786 11.704C20.9373 11.416 20.3026 11.016 19.7746 10.504C19.252 9.98667 18.8493 9.368 18.5666 8.648C18.284 7.928 18.1426 7.136 18.1426 6.272C18.1426 5.39733 18.2786 4.6 18.5506 3.88C18.828 3.16 19.22 2.544 19.7266 2.032C20.2333 1.51467 20.8493 1.11467 21.5746 0.832C22.3 0.549333 23.1106 0.407999 24.0066 0.407999C24.46 0.407999 24.8813 0.442666 25.2706 0.511999C25.66 0.576 26.02 0.672 26.3506 0.799999C26.6813 0.922666 26.988 1.07467 27.2706 1.256C27.5533 1.432 27.8173 1.632 28.0626 1.856L27.6226 2.56C27.5533 2.66667 27.4626 2.736 27.3506 2.768C27.244 2.79467 27.124 2.768 26.9906 2.688C26.8626 2.61333 26.716 2.52267 26.5506 2.416C26.3853 2.30933 26.1826 2.208 25.9426 2.112C25.708 2.01067 25.428 1.92533 25.1026 1.856C24.7826 1.78667 24.4013 1.752 23.9586 1.752C23.3133 1.752 22.7293 1.85867 22.2066 2.072C21.684 2.28 21.2386 2.58133 20.8706 2.976C20.5026 3.36533 20.22 3.84 20.0226 4.4C19.8253 4.95467 19.7266 5.57867 19.7266 6.272C19.7266 6.992 19.828 7.63733 20.0306 8.208C20.2386 8.77333 20.532 9.256 20.9106 9.656C21.2946 10.0507 21.7586 10.352 22.3026 10.56C22.8466 10.768 23.4573 10.872 24.1346 10.872C24.668 10.872 25.14 10.8133 25.5506 10.696C25.9666 10.5733 26.372 10.4053 26.7666 10.192V7.672H24.9826C24.8813 7.672 24.7986 7.64267 24.7346 7.584C24.676 7.52533 24.6466 7.45333 24.6466 7.368V6.488H28.1666ZM33.5284 3.768C34.1204 3.768 34.6537 3.86667 35.1284 4.064C35.603 4.26133 36.0084 4.54133 36.3444 4.904C36.6804 5.26667 36.9364 5.70667 37.1124 6.224C37.2937 6.736 37.3844 7.30933 37.3844 7.944C37.3844 8.584 37.2937 9.16 37.1124 9.672C36.9364 10.184 36.6804 10.6213 36.3444 10.984C36.0084 11.3467 35.603 11.6267 35.1284 11.824C34.6537 12.016 34.1204 12.112 33.5284 12.112C32.931 12.112 32.3924 12.016 31.9124 11.824C31.4377 11.6267 31.0324 11.3467 30.6964 10.984C30.3604 10.6213 30.1017 10.184 29.9204 9.672C29.7444 9.16 29.6564 8.584 29.6564 7.944C29.6564 7.30933 29.7444 6.736 29.9204 6.224C30.1017 5.70667 30.3604 5.26667 30.6964 4.904C31.0324 4.54133 31.4377 4.26133 31.9124 4.064C32.3924 3.86667 32.931 3.768 33.5284 3.768ZM33.5284 11C34.3284 11 34.9257 10.7333 35.3204 10.2C35.715 9.66133 35.9124 8.912 35.9124 7.952C35.9124 6.98667 35.715 6.23467 35.3204 5.696C34.9257 5.15733 34.3284 4.888 33.5284 4.888C33.123 4.888 32.7684 4.95733 32.4644 5.096C32.1657 5.23467 31.915 5.43467 31.7124 5.696C31.515 5.95733 31.3657 6.28 31.2644 6.664C31.1684 7.04267 31.1204 7.472 31.1204 7.952C31.1204 8.912 31.3177 9.66133 31.7124 10.2C32.1124 10.7333 32.7177 11 33.5284 11ZM40.5425 5.52C40.7985 4.96533 41.1132 4.53333 41.4865 4.224C41.8598 3.90933 42.3158 3.752 42.8545 3.752C43.0252 3.752 43.1878 3.77067 43.3425 3.808C43.5025 3.84533 43.6438 3.904 43.7665 3.984L43.6625 5.048C43.6305 5.18133 43.5505 5.248 43.4225 5.248C43.3478 5.248 43.2385 5.232 43.0945 5.2C42.9505 5.168 42.7878 5.152 42.6065 5.152C42.3505 5.152 42.1212 5.18933 41.9185 5.264C41.7212 5.33867 41.5425 5.45067 41.3825 5.6C41.2278 5.744 41.0865 5.92533 40.9585 6.144C40.8358 6.35733 40.7238 6.60267 40.6225 6.88V12H39.1905V3.896H40.0065C40.1612 3.896 40.2678 3.92533 40.3265 3.984C40.3852 4.04267 40.4252 4.144 40.4465 4.288L40.5425 5.52ZM48.1065 3.768C48.6985 3.768 49.2318 3.86667 49.7065 4.064C50.1812 4.26133 50.5865 4.54133 50.9225 4.904C51.2585 5.26667 51.5145 5.70667 51.6905 6.224C51.8718 6.736 51.9625 7.30933 51.9625 7.944C51.9625 8.584 51.8718 9.16 51.6905 9.672C51.5145 10.184 51.2585 10.6213 50.9225 10.984C50.5865 11.3467 50.1812 11.6267 49.7065 11.824C49.2318 12.016 48.6985 12.112 48.1065 12.112C47.5092 12.112 46.9705 12.016 46.4905 11.824C46.0158 11.6267 45.6105 11.3467 45.2745 10.984C44.9385 10.6213 44.6798 10.184 44.4985 9.672C44.3225 9.16 44.2345 8.584 44.2345 7.944C44.2345 7.30933 44.3225 6.736 44.4985 6.224C44.6798 5.70667 44.9385 5.26667 45.2745 4.904C45.6105 4.54133 46.0158 4.26133 46.4905 4.064C46.9705 3.86667 47.5092 3.768 48.1065 3.768ZM48.1065 11C48.9065 11 49.5038 10.7333 49.8985 10.2C50.2932 9.66133 50.4905 8.912 50.4905 7.952C50.4905 6.98667 50.2932 6.23467 49.8985 5.696C49.5038 5.15733 48.9065 4.888 48.1065 4.888C47.7012 4.888 47.3465 4.95733 47.0425 5.096C46.7438 5.23467 46.4932 5.43467 46.2905 5.696C46.0932 5.95733 45.9438 6.28 45.8425 6.664C45.7465 7.04267 45.6985 7.472 45.6985 7.952C45.6985 8.912 45.8958 9.66133 46.2905 10.2C46.6905 10.7333 47.2958 11 48.1065 11ZM59.0486 5.824C58.782 5.46667 58.494 5.21867 58.1846 5.08C57.8753 4.936 57.5286 4.864 57.1446 4.864C56.3926 4.864 55.814 5.13333 55.4086 5.672C55.0033 6.21067 54.8006 6.97867 54.8006 7.976C54.8006 8.504 54.846 8.95733 54.9366 9.336C55.0273 9.70933 55.1606 10.0187 55.3366 10.264C55.5126 10.504 55.7286 10.68 55.9846 10.792C56.2406 10.904 56.5313 10.96 56.8566 10.96C57.326 10.96 57.734 10.8533 58.0806 10.64C58.4326 10.4267 58.7553 10.1253 59.0486 9.736V5.824ZM60.4726 0.216V12H59.6246C59.422 12 59.294 11.9013 59.2406 11.704L59.1126 10.72C58.766 11.136 58.3713 11.472 57.9286 11.728C57.486 11.984 56.974 12.112 56.3926 12.112C55.9286 12.112 55.5073 12.024 55.1286 11.848C54.75 11.6667 54.4273 11.4027 54.1606 11.056C53.894 10.7093 53.6886 10.2773 53.5446 9.76C53.4006 9.24267 53.3286 8.648 53.3286 7.976C53.3286 7.37867 53.4086 6.824 53.5686 6.312C53.7286 5.79467 53.958 5.34667 54.2566 4.968C54.5553 4.58933 54.9206 4.29333 55.3526 4.08C55.79 3.86133 56.2806 3.752 56.8246 3.752C57.3206 3.752 57.7446 3.83733 58.0966 4.008C58.454 4.17333 58.7713 4.40533 59.0486 4.704V0.216H60.4726ZM64.1538 0.216V7.152H64.5218C64.6284 7.152 64.7164 7.13867 64.7858 7.112C64.8604 7.08 64.9378 7.01867 65.0178 6.928L67.5778 4.184C67.6524 4.09333 67.7298 4.024 67.8098 3.976C67.8951 3.92267 68.0071 3.896 68.1458 3.896H69.4338L66.4498 7.072C66.3058 7.25333 66.1511 7.39467 65.9858 7.496C66.0818 7.56 66.1671 7.63467 66.2418 7.72C66.3218 7.8 66.3964 7.89333 66.4658 8L69.6337 12H68.3618C68.2391 12 68.1324 11.9813 68.0418 11.944C67.9564 11.9013 67.8818 11.8267 67.8178 11.72L65.1538 8.4C65.0738 8.288 64.9938 8.216 64.9138 8.184C64.8391 8.14667 64.7218 8.128 64.5618 8.128H64.1538V12H62.7218V0.216H64.1538ZM77.7908 3.896L74.4868 12H73.2068L69.9028 3.896H71.0628C71.1801 3.896 71.2761 3.92533 71.3508 3.984C71.4254 4.04267 71.4761 4.112 71.5028 4.192L73.5588 9.408C73.6228 9.60533 73.6788 9.79733 73.7268 9.984C73.7748 10.1707 73.8201 10.3573 73.8628 10.544C73.9054 10.3573 73.9508 10.1707 73.9988 9.984C74.0468 9.79733 74.1054 9.60533 74.1748 9.408L76.2548 4.192C76.2868 4.10667 76.3401 4.03733 76.4148 3.984C76.4894 3.92533 76.5774 3.896 76.6788 3.896H77.7908ZM83.3169 8.352C82.6609 8.37333 82.1009 8.42667 81.6369 8.512C81.1782 8.592 80.8022 8.69867 80.5089 8.832C80.2209 8.96533 80.0102 9.12267 79.8769 9.304C79.7489 9.48533 79.6849 9.688 79.6849 9.912C79.6849 10.1253 79.7195 10.3093 79.7889 10.464C79.8582 10.6187 79.9515 10.7467 80.0689 10.848C80.1915 10.944 80.3329 11.016 80.4929 11.064C80.6582 11.1067 80.8342 11.128 81.0209 11.128C81.2715 11.128 81.5009 11.104 81.7089 11.056C81.9169 11.0027 82.1115 10.928 82.2929 10.832C82.4795 10.736 82.6555 10.6213 82.8209 10.488C82.9915 10.3547 83.1569 10.2027 83.3169 10.032V8.352ZM78.7169 5.04C79.1649 4.608 79.6475 4.28533 80.1649 4.072C80.6822 3.85867 81.2555 3.752 81.8849 3.752C82.3382 3.752 82.7409 3.82667 83.0929 3.976C83.4449 4.12533 83.7409 4.33333 83.9809 4.6C84.2209 4.86667 84.4022 5.18933 84.5249 5.568C84.6475 5.94667 84.7089 6.36267 84.7089 6.816V12H84.0769C83.9382 12 83.8315 11.9787 83.7569 11.936C83.6822 11.888 83.6235 11.7973 83.5809 11.664L83.4209 10.896C83.2075 11.0933 82.9995 11.2693 82.7969 11.424C82.5942 11.5733 82.3809 11.7013 82.1569 11.808C81.9329 11.9093 81.6929 11.9867 81.4369 12.04C81.1862 12.0987 80.9062 12.128 80.5969 12.128C80.2822 12.128 79.9862 12.0853 79.7089 12C79.4315 11.9093 79.1889 11.776 78.9809 11.6C78.7782 11.424 78.6155 11.2027 78.4929 10.936C78.3755 10.664 78.3169 10.344 78.3169 9.976C78.3169 9.656 78.4049 9.34933 78.5809 9.056C78.7569 8.75733 79.0422 8.49333 79.4369 8.264C79.8315 8.03467 80.3462 7.848 80.9809 7.704C81.6155 7.55467 82.3942 7.46933 83.3169 7.448V6.816C83.3169 6.18667 83.1809 5.712 82.9089 5.392C82.6369 5.06667 82.2395 4.904 81.7169 4.904C81.3649 4.904 81.0689 4.94933 80.8289 5.04C80.5942 5.12533 80.3889 5.224 80.2129 5.336C80.0422 5.44267 79.8929 5.54133 79.7649 5.632C79.6422 5.71733 79.5195 5.76 79.3969 5.76C79.3009 5.76 79.2182 5.736 79.1489 5.688C79.0795 5.63467 79.0209 5.57067 78.9729 5.496L78.7169 5.04ZM92.158 5.824C91.8913 5.46667 91.6033 5.21867 91.294 5.08C90.9847 4.936 90.638 4.864 90.254 4.864C89.502 4.864 88.9233 5.13333 88.518 5.672C88.1127 6.21067 87.91 6.97867 87.91 7.976C87.91 8.504 87.9553 8.95733 88.046 9.336C88.1367 9.70933 88.27 10.0187 88.446 10.264C88.622 10.504 88.838 10.68 89.094 10.792C89.35 10.904 89.6407 10.96 89.966 10.96C90.4353 10.96 90.8433 10.8533 91.19 10.64C91.542 10.4267 91.8647 10.1253 92.158 9.736V5.824ZM93.582 0.216V12H92.734C92.5313 12 92.4033 11.9013 92.35 11.704L92.222 10.72C91.8753 11.136 91.4807 11.472 91.038 11.728C90.5953 11.984 90.0833 12.112 89.502 12.112C89.038 12.112 88.6167 12.024 88.238 11.848C87.8593 11.6667 87.5367 11.4027 87.27 11.056C87.0033 10.7093 86.798 10.2773 86.654 9.76C86.51 9.24267 86.438 8.648 86.438 7.976C86.438 7.37867 86.518 6.824 86.678 6.312C86.838 5.79467 87.0673 5.34667 87.366 4.968C87.6647 4.58933 88.03 4.29333 88.462 4.08C88.8993 3.86133 89.39 3.752 89.934 3.752C90.43 3.752 90.854 3.83733 91.206 4.008C91.5633 4.17333 91.8807 4.40533 92.158 4.704V0.216H93.582ZM97.1831 5.52C97.4391 4.96533 97.7538 4.53333 98.1271 4.224C98.5005 3.90933 98.9565 3.752 99.4951 3.752C99.6658 3.752 99.8285 3.77067 99.9831 3.808C100.143 3.84533 100.284 3.904 100.407 3.984L100.303 5.048C100.271 5.18133 100.191 5.248 100.063 5.248C99.9885 5.248 99.8791 5.232 99.7351 5.2C99.5911 5.168 99.4285 5.152 99.2471 5.152C98.9911 5.152 98.7618 5.18933 98.5591 5.264C98.3618 5.33867 98.1831 5.45067 98.0231 5.6C97.8685 5.744 97.7271 5.92533 97.5991 6.144C97.4765 6.35733 97.3645 6.60267 97.2631 6.88V12H95.8311V3.896H96.6471C96.8018 3.896 96.9085 3.92533 96.9671 3.984C97.0258 4.04267 97.0658 4.144 97.0871 4.288L97.1831 5.52ZM105.926 8.352C105.27 8.37333 104.71 8.42667 104.246 8.512C103.788 8.592 103.412 8.69867 103.118 8.832C102.83 8.96533 102.62 9.12267 102.486 9.304C102.358 9.48533 102.294 9.688 102.294 9.912C102.294 10.1253 102.329 10.3093 102.398 10.464C102.468 10.6187 102.561 10.7467 102.678 10.848C102.801 10.944 102.942 11.016 103.102 11.064C103.268 11.1067 103.444 11.128 103.63 11.128C103.881 11.128 104.11 11.104 104.318 11.056C104.526 11.0027 104.721 10.928 104.902 10.832C105.089 10.736 105.265 10.6213 105.43 10.488C105.601 10.3547 105.766 10.2027 105.926 10.032V8.352ZM101.326 5.04C101.774 4.608 102.257 4.28533 102.774 4.072C103.292 3.85867 103.865 3.752 104.494 3.752C104.948 3.752 105.35 3.82667 105.702 3.976C106.054 4.12533 106.35 4.33333 106.59 4.6C106.83 4.86667 107.012 5.18933 107.134 5.568C107.257 5.94667 107.318 6.36267 107.318 6.816V12H106.686C106.548 12 106.441 11.9787 106.366 11.936C106.292 11.888 106.233 11.7973 106.19 11.664L106.03 10.896C105.817 11.0933 105.609 11.2693 105.406 11.424C105.204 11.5733 104.99 11.7013 104.766 11.808C104.542 11.9093 104.302 11.9867 104.046 12.04C103.796 12.0987 103.516 12.128 103.206 12.128C102.892 12.128 102.596 12.0853 102.318 12C102.041 11.9093 101.798 11.776 101.59 11.6C101.388 11.424 101.225 11.2027 101.102 10.936C100.985 10.664 100.926 10.344 100.926 9.976C100.926 9.656 101.014 9.34933 101.19 9.056C101.366 8.75733 101.652 8.49333 102.046 8.264C102.441 8.03467 102.956 7.848 103.59 7.704C104.225 7.55467 105.004 7.46933 105.926 7.448V6.816C105.926 6.18667 105.79 5.712 105.518 5.392C105.246 5.06667 104.849 4.904 104.326 4.904C103.974 4.904 103.678 4.94933 103.438 5.04C103.204 5.12533 102.998 5.224 102.822 5.336C102.652 5.44267 102.502 5.54133 102.374 5.632C102.252 5.71733 102.129 5.76 102.006 5.76C101.91 5.76 101.828 5.736 101.758 5.688C101.689 5.63467 101.63 5.57067 101.582 5.496L101.326 5.04ZM111.866 12.128C111.226 12.128 110.733 11.9493 110.386 11.592C110.045 11.2347 109.874 10.72 109.874 10.048V5.088H108.898C108.813 5.088 108.741 5.064 108.682 5.016C108.623 4.96267 108.594 4.88267 108.594 4.776V4.208L109.922 4.04L110.25 1.536C110.266 1.456 110.301 1.392 110.354 1.344C110.413 1.29067 110.487 1.264 110.578 1.264H111.298V4.056H113.642V5.088H111.298V9.952C111.298 10.2933 111.381 10.5467 111.546 10.712C111.711 10.8773 111.925 10.96 112.186 10.96C112.335 10.96 112.463 10.9413 112.57 10.904C112.682 10.8613 112.778 10.816 112.858 10.768C112.938 10.72 113.005 10.6773 113.058 10.64C113.117 10.5973 113.167 10.576 113.21 10.576C113.285 10.576 113.351 10.6213 113.41 10.712L113.826 11.392C113.581 11.6213 113.285 11.8027 112.938 11.936C112.591 12.064 112.234 12.128 111.866 12.128ZM118.482 3.768C119.074 3.768 119.607 3.86667 120.082 4.064C120.556 4.26133 120.962 4.54133 121.298 4.904C121.634 5.26667 121.89 5.70667 122.066 6.224C122.247 6.736 122.338 7.30933 122.338 7.944C122.338 8.584 122.247 9.16 122.066 9.672C121.89 10.184 121.634 10.6213 121.298 10.984C120.962 11.3467 120.556 11.6267 120.082 11.824C119.607 12.016 119.074 12.112 118.482 12.112C117.884 12.112 117.346 12.016 116.866 11.824C116.391 11.6267 115.986 11.3467 115.65 10.984C115.314 10.6213 115.055 10.184 114.874 9.672C114.698 9.16 114.61 8.584 114.61 7.944C114.61 7.30933 114.698 6.736 114.874 6.224C115.055 5.70667 115.314 5.26667 115.65 4.904C115.986 4.54133 116.391 4.26133 116.866 4.064C117.346 3.86667 117.884 3.768 118.482 3.768ZM118.482 11C119.282 11 119.879 10.7333 120.274 10.2C120.668 9.66133 120.866 8.912 120.866 7.952C120.866 6.98667 120.668 6.23467 120.274 5.696C119.879 5.15733 119.282 4.888 118.482 4.888C118.076 4.888 117.722 4.95733 117.418 5.096C117.119 5.23467 116.868 5.43467 116.666 5.696C116.468 5.95733 116.319 6.28 116.218 6.664C116.122 7.04267 116.074 7.472 116.074 7.952C116.074 8.912 116.271 9.66133 116.666 10.2C117.066 10.7333 117.671 11 118.482 11ZM130.869 3.896L127.565 12H126.285L122.981 3.896H124.141C124.258 3.896 124.354 3.92533 124.429 3.984C124.504 4.04267 124.554 4.112 124.581 4.192L126.637 9.408C126.701 9.60533 126.757 9.79733 126.805 9.984C126.853 10.1707 126.898 10.3573 126.941 10.544C126.984 10.3573 127.029 10.1707 127.077 9.984C127.125 9.79733 127.184 9.60533 127.253 9.408L129.333 4.192C129.365 4.10667 129.418 4.03733 129.493 3.984C129.568 3.92533 129.656 3.896 129.757 3.896H130.869Z" fill="#72757D"/>
</svg>
